<?xml version="1.0" encoding="UTF-8"?>
<!DOCTYPE svg PUBLIC "-//W3C//DTD SVG 1.1//EN" "http://www.w3.org/Graphics/SVG/1.1/DTD/svg11.dtd">
<svg xmlns="http://www.w3.org/2000/svg" version="1.1" width="150px" height="150px" style="shape-rendering:geometricPrecision; text-rendering:geometricPrecision; image-rendering:optimizeQuality; fill-rule:evenodd; clip-rule:evenodd" xmlns:xlink="http://www.w3.org/1999/xlink">
<g><path  fill="#000000" d="M 202.5,41.5 C 267.662,39.9968 318.828,65.6635 356,118.5C 387.08,169.314 392.08,222.648 371,278.5C 365.153,292.368 357.653,305.202 348.5,317C 387,355.5 425.5,394 464,432.5C 472.37,445.041 470.87,456.208 459.5,466C 450.082,471.031 441.082,470.365 432.5,464C 394,425.5 355.5,387 317,348.5C 269.493,383.169 217.326,392.336 160.5,376C 93.6898,351.851 54.5232,304.684 43,234.5C 36.8097,164.396 62.3097,109.229 119.5,69C 144.961,52.9018 172.627,43.7351 202.5,41.5 Z M 199.5,85.5 C 253.865,83.0948 295.365,104.761 324,150.5C 349.442,201.84 344.776,250.174 310,295.5C 273.345,334.793 228.845,347.96 176.5,335C 124.1,316.929 93.9334,280.429 86,225.5C 82.9956,170.666 104.829,129.166 151.5,101C 166.743,93.0843 182.743,87.9176 199.5,85.5 Z"/></g>
</svg>
